# xmcd CD database file
#
# Track frame offsets:
#	150
#	16276
#	29675
#	43402
#	57173
#	74530
#	92964
#	108613
#	117830
#	131756
#	146740
#	162769
#	176416
#	191532
#	213466
#	231710
#	246441
#	261153
#
# Disc length: 3667 seconds
#
# Revision: 2
# Processed by: cddbd v1.5.2PL0 Copyright (c) Steve Scherf et al.
# Submitted via: CDex 1.50beta10
#
DISCID=1c0e5112
DTITLE=Best Of Jazz 1 - ¥N¨O¿Ô§h1
DYEAR=2000
DGENRE=Jazz
TTITLE0=Mack The Nkife
TTITLE1=God bless the child
TTITLE2=Embraceable you
TTITLE3=We can't go on this way
TTITLE4=All my life
TTITLE5=Cry Me A River
TTITLE6=PS I love you
TTITLE7=Paper Moon
TTITLE8=Alexader's Ragtime Band
TTITLE9=Minnie The Moocher
TTITLE10=Sugar in my bowl
TTITLE11=Mary had river
TTITLE12=Hurry on down
TTITLE13=Georgia On My Mind
TTITLE14=All the things you are
TTITLE15=Flep Flop and Fly
TTITLE16=Fine Brown Frame
TTITLE17=Trav'ling All Alone
EXTD=YEAR: 2000
EXTT0=
EXTT1=
EXTT2=
EXTT3=
EXTT4=
EXTT5=
EXTT6=
EXTT7=
EXTT8=
EXTT9=
EXTT10=
EXTT11=
EXTT12=
EXTT13=
EXTT14=
EXTT15=
EXTT16=
EXTT17=
PLAYORDER=
